<?xml version="1.0" encoding="UTF-8"?> <svg xmlns="http://www.w3.org/2000/svg" xmlns:xlink="http://www.w3.org/1999/xlink" version="1.1" viewBox="0 0 548 120"><defs><style> .cls-1 { fill: #1a171b; } .cls-2 { fill: url(#linear-gradient); } .cls-3 { fill: #e1001a; } </style><linearGradient id="linear-gradient" x1="74.7" y1="103.7" x2="48.5" y2="50.9" gradientUnits="userSpaceOnUse"><stop offset="0" stop-color="#fff"></stop><stop offset="1" stop-color="#1a171b"></stop></linearGradient></defs><g><g id="Capa_1"><g><path class="cls-3" d="M10.9,83.4c-1.9.7-5.7,3.8-5.7,8.6v10.1h57.9c26.4,0,26.4-26.3,26.4-26.3V17.9H5.2v6s153.4,7,5.7,59.6Z"></path><path class="cls-2" d="M17,37.9c87.8,5.9,28.1,31.8,28.1,31.8C130.9,29.6,5.2,23.8,5.2,23.8c0,0,2.7,9.4,11.8,14.1Z"></path><g><path class="cls-1" d="M104.9,102v-30.1h30.4v6.1h-22.7v6.7h12.3v6.3h-12.3v11.1h-7.8Z"></path><path class="cls-1" d="M159.9,102l17-30.1h7.1l17.3,30.1h-8.7l-3.5-6.4h-17.9l-3.4,6.4h-7.9ZM185.8,89.4l-5.5-10.4-5.7,10.4h11.2Z"></path><path class="cls-1" d="M260.3,77.1h-15.5v7h15.5c1.2,0,2-.2,2.4-.5.4-.3.7-.9.7-1.6v-2.8c0-.8-.2-1.3-.7-1.6-.5-.3-1.3-.5-2.4-.5ZM260.3,88.9h-15.5v7.4h15.5c1.3,0,2.2-.2,2.6-.6.4-.4.7-1.1.7-2v-2.2c0-1-.2-1.6-.7-2-.5-.4-1.3-.6-2.6-.6ZM237.6,102v-30.1h25.5c2.4,0,4.1.5,5.3,1.5h0c1.2,1,1.7,2.6,1.7,4.7h0v3.6c0,1.5-.5,2.8-1.4,3.7h0c-.6.5-1.2.9-2,1.2h0c.9.3,1.6.8,2.2,1.4h0c1,1.1,1.5,2.5,1.5,4.1h0v3.7c0,2-.8,3.7-2.3,4.7h0c-1.5,1-3.8,1.5-6.7,1.5h-23.6Z"></path><path class="cls-1" d="M335.9,102l-11.7-11h-5.8v11h-7.6v-30.1h25.4c2.4,0,4.2.4,5.3,1.5h0c1.2,1,1.7,2.6,1.7,4.7h0v6.8c0,2-.6,3.6-1.7,4.7h0c-1.2,1-3,1.5-5.3,1.5h-2.5s13.5,11,13.5,11h-11.3ZM333.1,77.9h-14.8v7.1h14.8c1.1,0,1.9-.2,2.1-.4h0c.3-.2.5-.6.5-1.4h0v-3.5c0-.8-.2-1.2-.5-1.4h0c-.3-.2-1-.4-2.1-.4h0"></path><path class="cls-1" d="M384.3,102v-30.1h7.7v30.1h-7.7Z"></path><path class="cls-1" d="M441.3,102c-2.9,0-4.9-.5-6.1-1.6h0c-1.2-1.1-1.6-3.1-1.6-5.8h0v-15.4c0-2.7.5-4.6,1.6-5.8h0c1.2-1.1,3.2-1.6,6.1-1.6h17.4c2.9,0,4.9.5,6.1,1.6h0c1.2,1.1,1.6,3.1,1.6,5.8h0v3.2h-7.8v-4.4h-17.3v17.5h17.3v-4.9h7.8v3.9c0,2.7-.5,4.7-1.6,5.8h0c-1.2,1.1-3.2,1.6-6.1,1.6h-17.4Z"></path><path class="cls-1" d="M533.4,102l-3.5-6.4h-17.9l-3.4,6.4h-7.9l17-30.1h7.1l17.3,30.1h-8.7ZM526.6,89.4l-5.5-10.4-5.7,10.4h11.2Z"></path></g><g><path class="cls-3" d="M180.3,38.4c0,3-.6,5.3-1.7,6.9h0c-1.1,1.7-2.9,2.6-5,2.6h-58.6v16.1h-10.2V17.9s68.7,0,68.7,0c2.1,0,3.9.8,5.1,2.5h0c1.1,1.6,1.6,3.8,1.6,6.7h0v11.4M115.1,37.5h51.9s0,0,.1,0h0c.1,0,.3,0,.4-.2h0c.3-.2.6-.5.6-1.5h0v-4.7h0c0-1.1-.3-1.5-.5-1.7h0c-.2-.2-.5-.3-.5-.3h-52.1v8.4h0Z"></path><path class="cls-3" d="M260.7,64l-6.5-16.1h-48.3v16.1h-10.2V17.9h68.7c2.1,0,3.9.8,5.1,2.5h0c1.1,1.6,1.6,3.8,1.6,6.7h0v11.4c0,3-.6,5.3-1.7,6.9h0c-1,1.5-2.5,2.4-4.2,2.5h0l6.4,16.1h-10.8ZM205.8,37.3h51.8s0,0,0,0c0,0,0,0,.1,0h0c.1,0,.3,0,.4-.2h0c.2-.2.5-.4.6-1.3h0c0-2.4,0-2.4,0-5h0c0-1.5-.6-1.5-1-1.7h0c-.1,0-.1,0-.1,0h-51.7v8.2h0Z"></path><path class="cls-3" d="M293.8,64h0c-2.4,0-4.4-1.1-5.6-3.2h0c-1.2-2-1.8-4.9-1.8-8.6h0v-24.2c0-3.2.6-5.7,1.8-7.5h0c1.3-1.8,3.3-2.8,5.7-2.7h60.5c2.3,0,4.3.9,5.5,2.8h0c1.2,1.8,1.7,4.3,1.7,7.5h0v24.2c0,3.7-.5,6.5-1.7,8.6h0c-1.2,2.1-3.2,3.2-5.5,3.2h-60.6ZM346,51.6c5.6,0,5.2-5.3,5.2-5.3v-11.8c0-5-5.2-4.7-5.2-4.7h-44s-5.2-.4-5.2,4.7v11.8s-.4,5.3,5.2,5.3h44Z"></path><path class="cls-3" d="M407.9,64l-31.8-46h13.1l23.8,33.3,26.9-32.9.3-.3h13.1l-35.6,46h-9.7Z"></path><path class="cls-3" d="M467.6,64V17.9h75.2v11h-65v6.4h65v10.5h-65v6.3h65v11.9h-75.2Z"></path></g></g></g></g></svg> 